<?xml version="1.0" encoding="UTF-8"?>
<svg version="1.1" xmlns="http://www.w3.org/2000/svg" width="2000" height="2000">
<path d="M0 0 C660 0 1320 0 2000 0 C2000 660 2000 1320 2000 2000 C1340 2000 680 2000 0 2000 C0 1340 0 680 0 0 Z " fill="#000000" transform="translate(0,0)"/>
<path d="M0 0 C1.77324142 -0.00200912 1.77324142 -0.00200912 3.58230591 -0.00405884 C21.38061903 0.00029588 38.83744287 0.5996387 56.50341797 2.84863281 C59.43848978 3.21861119 62.37341899 3.53675741 65.31640625 3.8359375 C123.65022364 10.12916859 180.96141555 29.02050941 233.6875 54.25 C234.59097168 54.67716309 235.49444336 55.10432617 236.42529297 55.54443359 C257.61829405 65.60544715 277.61827514 77.6998131 297.125 90.6875 C298.20740967 91.4081665 299.28981934 92.12883301 300.4050293 92.87133789 C307.67718505 97.77104924 314.71750314 102.93084274 321.6875 108.25 C322.34177979 108.74556396 322.99605957 109.24112793 323.67016602 109.75170898 C333.80231942 117.434595 343.71564144 125.33001722 353.10546875 133.9140625 C355.2041342 135.81270386 357.32404068 137.67624839 359.4609375 139.53125 C363.77573415 143.29856046 367.96156257 147.19175945 372.125 151.125 C372.86927246 151.82753906 373.61354492 152.53007813 374.38037109 153.25390625 C381.44854083 159.94339643 388.41204806 166.63697274 394.75 174.03125 C396.67322656 176.23365461 398.64782011 178.38253658 400.63696289 180.52539062 C406.24506363 186.57241961 411.53284302 192.80880879 416.6875 199.25 C417.60990375 200.38083957 418.53312196 201.51101515 419.45703125 202.640625 C444.90393274 233.88935242 465.63657212 268.29268509 483.6875 304.25 C484.14753418 305.16072266 484.60756836 306.07144531 485.08154297 307.00976562 C500.77296933 338.26190597 513.3664793 372.25849035 521.6875 406.25 C521.92275391 407.2085791 522.15800781 408.1671582 522.40039062 409.15478516 C528.39729492 433.85216253 532.39473817 458.44026674 535.27026367 483.66162109 C535.55832167 486.13902102 535.8716925 488.6135627 536.20556641 491.08520508 C536.78996722 495.75115262 537.0280251 500.41716254 537.23046875 505.11328125 C537.27189499 506.06390945 537.31332123 507.01453766 537.35600281 507.99397278 C539.28460499 555.60466613 537.35118168 602.53632451 527.6875 649.25 C527.54701233 649.93082642 527.40652466 650.61165283 527.26177979 651.31311035 C523.83194636 667.84524727 519.99333063 684.20917772 514.6875 700.25 C514.2843457 701.48637207 513.88119141 702.72274414 513.46582031 703.99658203 C496.72946895 755.19395213 474.26849333 804.40277188 442.96679688 848.44873047 C441.69296224 850.24230908 440.43155322 852.04411539 439.171875 853.84765625 C433.29858603 862.21372519 427.08930952 870.28281982 420.6875 878.25 C419.93726563 879.18457031 419.18703125 880.11914062 418.4140625 881.08203125 C416.19173254 883.82183516 413.94667141 886.54049542 411.6875 889.25 C411.25920898 889.7646582 410.83091797 890.27931641 410.38964844 890.80957031 C398.99011795 904.4580432 386.73031837 917.27754584 374.1875 929.875 C373.45837402 930.60879883 372.72924805 931.34259766 371.97802734 932.09863281 C367.93480688 936.12982814 363.79388912 939.98574447 359.46923828 943.71337891 C357.23258666 945.64233003 355.05481984 947.63224 352.875 949.625 C347.62317506 954.35243697 342.21345623 958.84810258 336.6875 963.25 C336.048125 963.76191895 335.40875 964.27383789 334.75 964.80126953 C324.1138567 973.29182889 313.20134005 981.22091948 301.88476562 988.77880859 C299.868273 990.12896243 297.86211518 991.49284679 295.859375 992.86328125 C249.05331147 1024.74731484 196.29694544 1048.37261595 141.6875 1063.25 C140.13885731 1063.70153114 138.59071932 1064.15479527 137.04296875 1064.609375 C115.38573364 1070.86941355 93.07866388 1074.93544465 70.75146484 1077.96630859 C68.83866314 1078.22922267 66.92891084 1078.5140693 65.01953125 1078.80078125 C43.44898752 1081.93700903 21.82941244 1082.59182165 0.0625 1082.5 C-1.20399384 1082.49756287 -2.47048767 1082.49512573 -3.77536011 1082.49261475 C-22.68930843 1082.44996774 -41.47941741 1082.10823177 -60.3125 1080.25 C-61.19969727 1080.16459961 -62.08689453 1080.07919922 -63.00097656 1079.99121094 C-70.6461096 1079.23176064 -78.2461676 1078.20363208 -85.8125 1076.8671875 C-88.6225467 1076.37166587 -91.43360795 1075.90239562 -94.25 1075.4453125 C-166.58967208 1063.53293863 -235.77503181 1035.91807395 -297.3125 996.25 C-297.94575195 995.84442871 -298.57900391 995.43885742 -299.23144531 995.02099609 C-313.84992004 985.63221682 -327.78630344 975.14034406 -341.3125 964.25 C-342.28832031 963.46882813 -343.26414062 962.68765625 -344.26953125 961.8828125 C-349.65771158 957.52705273 -354.86971428 953.02029154 -359.9921875 948.35546875 C-362.01404184 946.52082315 -364.05928522 944.72231214 -366.125 942.9375 C-378.1254222 932.45825808 -390.07792277 921.58095421 -400.4140625 909.4296875 C-402.43231245 907.11243756 -404.51571294 904.86804482 -406.61352539 902.62304688 C-412.45348149 896.36912149 -417.99270048 889.95717384 -423.3125 883.25 C-424.16000649 882.19519216 -425.00766912 881.14050975 -425.85546875 880.0859375 C-442.20674235 859.63191556 -457.25847342 837.95661623 -470.3125 815.25 C-470.81185059 814.39051758 -471.31120117 813.53103516 -471.82568359 812.64550781 C-489.72443859 781.74916177 -504.14988235 749.70144093 -515.75 715.9375 C-516.00170959 715.20537292 -516.25341919 714.47324585 -516.51275635 713.71893311 C-523.24106265 694.06226737 -528.38230121 674.07097552 -532.7644043 653.7722168 C-533.17245902 651.89443804 -533.58940576 650.01858723 -534.01098633 648.14379883 C-535.9896648 639.20458189 -537.52772278 630.23802516 -538.875 621.1875 C-538.98299927 620.46833405 -539.09099854 619.74916809 -539.20227051 619.00820923 C-543.20383956 592.25225 -544.52983495 565.66184054 -544.5 538.625 C-544.49906342 537.52072662 -544.49812683 536.41645325 -544.49716187 535.27871704 C-544.46760375 519.17507606 -544.24613038 503.25525985 -542.3125 487.25 C-542.23473328 486.58816711 -542.15696655 485.92633423 -542.07684326 485.2444458 C-538.7038417 456.53855137 -533.93556672 428.16460409 -526.3125 400.25 C-526.0748291 399.36844238 -525.8371582 398.48688477 -525.59228516 397.57861328 C-517.86794884 369.19651434 -507.48214708 341.98899645 -495.3125 315.25 C-494.838125 314.20344238 -494.36375 313.15688477 -493.875 312.07861328 C-487.14663676 297.33881469 -479.50953182 283.22076398 -471.3125 269.25 C-470.77915039 268.33992188 -470.24580078 267.42984375 -469.69628906 266.4921875 C-463.84996447 256.5537937 -457.89227093 246.72438365 -451.3125 237.25 C-450.87470215 236.61529785 -450.4369043 235.9805957 -449.98583984 235.32666016 C-443.0966393 225.35538749 -435.93093949 215.6752073 -428.3125 206.25 C-427.55324219 205.30769531 -426.79398438 204.36539063 -426.01171875 203.39453125 C-423.79487649 200.66580712 -421.55907976 197.95428701 -419.3125 195.25 C-418.89532715 194.74645996 -418.4781543 194.24291992 -418.04833984 193.72412109 C-407.0742227 180.5055754 -395.33920559 168.0898719 -383.1940918 155.94628906 C-381.24303259 153.99302472 -379.30016164 152.03184746 -377.35742188 150.0703125 C-371.03921151 143.72448089 -364.70577161 137.65266332 -357.65136719 132.12133789 C-355.20155038 130.16122872 -352.91387399 128.0822531 -350.625 125.9375 C-344.55553717 120.41457647 -337.96664923 115.63464347 -331.36523438 110.77636719 C-329.43897605 109.34404475 -327.53628962 107.8865328 -325.640625 106.4140625 C-259.45090954 55.22734921 -178.7445434 22.13799454 -96.64746094 7.83886719 C-93.93778702 7.36040939 -91.23776847 6.85620012 -88.5390625 6.3203125 C-79.75769422 4.62012742 -70.95345893 3.57356047 -62.0625 2.625 C-60.92079346 2.50165283 -59.77908691 2.37830566 -58.6027832 2.2512207 C-39.11746304 0.28348797 -19.57030288 0.0132277 0 0 Z " fill="#FEFEFE" transform="translate(1004.3125,459.75)"/>
<path d="M0 0 C7.93867453 4.31479829 15.85184855 8.67399901 23.75 13.0625 C24.33237427 13.38603455 24.91474854 13.70956909 25.51477051 14.04290771 C36.43601759 20.11203779 47.32065259 26.24470009 58.18945312 32.40722656 C62.95718079 35.10915979 67.72878676 37.80422817 72.5 40.5 C78.22751762 43.73659603 83.95461655 46.97392148 89.6796875 50.21484375 C99.64754259 55.85587968 109.62720252 61.4746836 119.625 67.0625 C128.12674853 71.81478287 136.5988161 76.61504834 145.04736328 81.46118164 C151.8403325 85.35179396 158.66558786 89.18273078 165.5 93 C174.04390158 97.77208161 182.55808459 102.59160067 191.046875 107.4609375 C197.84004219 111.35156962 204.66542899 115.18264205 211.5 119 C220.04390158 123.77208161 228.55808459 128.59160067 237.046875 133.4609375 C243.84004219 137.35156962 250.66542899 141.18264205 257.5 145 C266.03215648 149.76552155 274.53516137 154.57752309 283.01171875 159.44116211 C291.22103943 164.14376397 299.47708884 168.76190156 307.74023438 173.36914062 C308.74376953 173.92923828 309.74730469 174.48933594 310.78125 175.06640625 C311.66876953 175.56084229 312.55628906 176.05527832 313.47070312 176.56469727 C316 178 316 178 318.57617188 179.74584961 C320.8393594 181.20650728 320.8393594 181.20650728 322.94911081 180.75786597 C325.30296524 179.88804513 326.47115076 178.90077707 328.23805523 177.12829494 C328.85848035 176.51322627 329.47890546 175.8981576 330.11813134 175.26445049 C330.79060475 174.58255643 331.46307817 173.90066237 332.15592957 173.19810486 C332.87734691 172.47854522 333.59876426 171.75898558 334.34204274 171.0176211 C336.7667121 168.59555932 339.18047849 166.16291309 341.59448242 163.73022461 C343.32676654 161.99545823 345.05971827 160.26135828 346.79328918 158.52787781 C350.52889619 154.78956151 354.25988354 151.04672461 357.98683739 147.29978752 C363.37598735 141.88184526 368.77386598 136.4726684 374.17401949 131.06569607 C382.93573571 122.29253331 391.691096 113.51305665 400.44213867 104.72924805 C408.94219426 96.19740689 417.4439786 87.6672974 425.94897461 79.14038086 C426.47306953 78.61493236 426.99716446 78.08948386 427.53714105 77.54811268 C433.25433767 71.81628641 438.97223244 66.0851573 444.69096088 60.35485935 C445.1929983 59.85180355 445.69503572 59.34874776 446.21228639 58.83044784 C448.21873555 56.81994746 450.22519223 54.8094546 452.2317386 52.79905123 C458.11536649 46.90407858 463.99678451 41.00692108 469.87429509 35.10584892 C473.99219647 30.97155274 478.11239105 26.83954766 482.23341179 22.70836067 C483.92868222 21.0079981 485.62307602 19.30676102 487.31655502 17.60461426 C489.61712449 15.29245413 491.92067979 12.98331133 494.22502136 10.6749115 C495.24376973 9.64872433 495.24376973 9.64872433 496.28309888 8.6018061 C500.88596404 4 500.88596404 4 502 4 C502 172.3 502 340.6 502 514 C333.7 514 165.4 514 -8 514 C-1.25 506.125 -1.25 506.125 1.59626579 503.28068638 C2.24567347 502.62928765 2.89508116 501.97788892 3.56416786 501.30675083 C4.25873435 500.61509719 4.95330084 499.92344354 5.66891479 499.21083069 C6.42133143 498.45755963 7.17374806 497.70428858 7.94896519 496.92819113 C10.45693677 494.41857964 12.9684524 491.91254603 15.47998047 489.40649414 C17.28401307 487.60274375 19.08782522 485.79877285 20.89143372 483.99459839 C24.76788276 480.11792203 28.64585323 476.2427779 32.52523422 472.36903572 C38.13407758 466.76833968 43.74013835 461.16486512 49.3455366 455.56072133 C58.44129181 446.46715157 67.53927519 437.37581451 76.63867188 428.28588867 C85.47480835 419.45893944 94.3098878 410.6309344 103.14355469 401.80151367 C103.96112046 400.98434198 103.96112046 400.98434198 104.79520272 400.15066177 C107.52968118 397.41748841 110.26413894 394.68429434 112.99858642 391.95108998 C135.66251705 369.29751616 158.33006876 346.64756894 181 324 C179.70931448 320.00218521 178.3250382 316.54446879 176.1640625 312.9375 C175.60066162 311.98738037 175.03726074 311.03726074 174.45678711 310.05834961 C173.85229736 309.04909424 173.24780762 308.03983887 172.625 307 C167.92297507 299.05011614 163.32515549 291.06533094 158.9375 282.9375 C153.30320549 272.51288428 147.49409539 262.1942392 141.64111328 251.89111328 C138.92037626 247.09805054 136.21068846 242.29875038 133.5 237.5 C130.26346823 231.77244611 127.02607848 226.0453834 123.78515625 220.3203125 C118.14412032 210.35245741 112.5253164 200.37279748 106.9375 190.375 C102.18521713 181.87325147 97.38495166 173.4011839 92.53881836 164.95263672 C88.04039258 157.09843143 83.62454411 149.19896543 79.2109375 141.296875 C75.03073363 133.82038702 70.79804487 126.37583326 66.53466797 118.9465332 C62.68153788 112.2210351 58.89825384 105.45806681 55.125 98.6875 C50.4930947 90.37816197 45.76290419 82.13585903 40.9375 73.9375 C35.67973242 64.996366 30.66809453 55.9469792 25.76245117 46.80859375 C18.41379773 33.14169223 10.76511497 19.63019915 2.58886719 6.43920898 C0 2.21319265 0 2.21319265 0 0 Z " fill="#FEFEFE" transform="translate(1498,1486)"/>
</svg>
