<?xml version="1.0" encoding="UTF-8"?>
<svg version="1.1" xmlns="http://www.w3.org/2000/svg" width="2000" height="2000">
<path d="M0 0 C660 0 1320 0 2000 0 C2000 660 2000 1320 2000 2000 C1340 2000 680 2000 0 2000 C0 1340 0 680 0 0 Z " fill="#FEFEFE" transform="translate(0,0)"/>
<path d="M0 0 C1.44853363 -0.00392761 1.44853363 -0.00392761 2.92633057 -0.00793457 C18.88538036 -0.01247438 34.72112775 0.76343054 50.625 2.0625 C52.10981873 2.18025284 52.10981873 2.18025284 53.62463379 2.30038452 C68.48382739 3.50580786 83.08634633 5.64378308 97.75 8.3125 C98.49999268 8.44825439 99.24998535 8.58400879 100.02270508 8.72387695 C148.29333551 17.53104948 194.49845442 33.13808577 238.75 54.3125 C239.65347168 54.73966309 240.55694336 55.16682617 241.48779297 55.60693359 C262.68079405 65.66794715 282.68077514 77.7623131 302.1875 90.75 C303.26990967 91.4706665 304.35231934 92.19133301 305.4675293 92.93383789 C312.73985021 97.83366052 319.78299375 102.98903026 326.75 108.3125 C327.93952271 109.21754272 327.93952271 109.21754272 329.15307617 110.14086914 C343.04649396 120.75281147 356.32860636 131.893848 369.12695312 143.80273438 C370.92013001 145.47075571 372.71794773 147.13370543 374.515625 148.796875 C392.10953902 165.10696219 392.10953902 165.10696219 399.8125 174.09375 C401.73572656 176.29615461 403.71032011 178.44503658 405.69946289 180.58789062 C411.30756363 186.63491961 416.59534302 192.87130879 421.75 199.3125 C422.67240375 200.44333957 423.59562196 201.57351515 424.51953125 202.703125 C449.91918092 233.89612106 470.80129651 268.37559571 488.75 304.3125 C489.43570068 305.67205811 489.43570068 305.67205811 490.13525391 307.05908203 C505.83151289 338.31500752 518.42762822 372.31547116 526.75 406.3125 C526.98525391 407.2710791 527.22050781 408.2296582 527.46289062 409.21728516 C533.45979492 433.91466253 537.45723817 458.50276674 540.33276367 483.72412109 C540.62082167 486.20152102 540.9341925 488.6760627 541.26806641 491.14770508 C541.85246722 495.81365262 542.0905251 500.47966254 542.29296875 505.17578125 C542.33439499 506.12640945 542.37582123 507.07703766 542.41850281 508.05647278 C544.34710499 555.66716613 542.41368168 602.59882451 532.75 649.3125 C532.60951233 649.99332642 532.46902466 650.67415283 532.32427979 651.37561035 C528.89444636 667.90774727 525.05583063 684.27167772 519.75 700.3125 C519.3468457 701.54887207 518.94369141 702.78524414 518.52832031 704.05908203 C501.54013944 756.02681171 478.57505726 805.66061358 446.75 850.3125 C446.24645996 851.02712402 445.74291992 851.74174805 445.22412109 852.47802734 C437.9241171 862.83635353 430.28338379 872.81845401 422.18994141 882.56835938 C420.16245602 885.02416737 418.17994304 887.51572868 416.1875 890 C411.97178677 895.15167892 407.48639192 900.0232414 402.9375 904.87890625 C400.41496393 907.5734055 397.95780113 910.3210337 395.50390625 913.078125 C390.73214106 918.39102335 385.74776447 923.46296551 380.6875 928.5 C379.84123047 929.35013672 378.99496094 930.20027344 378.12304688 931.07617188 C373.1602899 936.03127618 368.06984021 940.74588495 362.75 945.3125 C361.14231627 946.76695517 359.53760285 948.22470895 357.9375 949.6875 C352.68567506 954.41493697 347.27595623 958.91060258 341.75 963.3125 C341.110625 963.82441895 340.47125 964.33633789 339.8125 964.86376953 C329.1763567 973.35432889 318.26384005 981.28341948 306.94726562 988.84130859 C304.930773 990.19146243 302.92461518 991.55534679 300.921875 992.92578125 C254.11581147 1024.80981484 201.35944544 1048.43511595 146.75 1063.3125 C145.20135731 1063.76403114 143.65321932 1064.21729527 142.10546875 1064.671875 C120.44823364 1070.93191355 98.14116388 1074.99794465 75.81396484 1078.02880859 C73.90116314 1078.29172267 71.99141084 1078.5765693 70.08203125 1078.86328125 C48.51148752 1081.99950903 26.89191244 1082.65432165 5.125 1082.5625 C3.85850616 1082.56006287 2.59201233 1082.55762573 1.28713989 1082.55511475 C-17.62680843 1082.51246774 -36.41691741 1082.17073177 -55.25 1080.3125 C-56.13719727 1080.22709961 -57.02439453 1080.14169922 -57.93847656 1080.05371094 C-65.5836096 1079.29426064 -73.1836676 1078.26613208 -80.75 1076.9296875 C-83.5600467 1076.43416587 -86.37110795 1075.96489562 -89.1875 1075.5078125 C-161.52717208 1063.59543863 -230.71253181 1035.98057395 -292.25 996.3125 C-292.88325195 995.90692871 -293.51650391 995.50135742 -294.16894531 995.08349609 C-308.78742004 985.69471682 -322.72380344 975.20284406 -336.25 964.3125 C-337.22582031 963.53132813 -338.20164062 962.75015625 -339.20703125 961.9453125 C-344.59521158 957.58955273 -349.80721428 953.08279154 -354.9296875 948.41796875 C-356.95154184 946.58332315 -358.99678522 944.78481214 -361.0625 943 C-372.71045137 932.83152633 -384.27402544 922.30366082 -394.31640625 910.52734375 C-396.3487464 908.19939048 -398.44342839 905.94134238 -400.55297852 903.68359375 C-406.39291949 897.42917024 -411.91113667 891.00399481 -417.25 884.3125 C-418.17091185 883.18280792 -419.09284111 882.05394468 -420.015625 880.92578125 C-459.90312289 831.94949031 -490.21211751 775.64437106 -510.6875 716 C-510.93902832 715.26823547 -511.19055664 714.53647095 -511.44970703 713.78253174 C-518.17830894 694.12551263 -523.31970985 674.13389872 -527.7019043 653.8347168 C-528.10995902 651.95693804 -528.52690576 650.08108723 -528.94848633 648.20629883 C-530.9271648 639.26708189 -532.46522278 630.30052516 -533.8125 621.25 C-533.92049927 620.53083405 -534.02849854 619.81166809 -534.13977051 619.07070923 C-538.14133956 592.31475 -539.46733495 565.72434054 -539.4375 538.6875 C-539.43656342 537.58322662 -539.43562683 536.47895325 -539.43466187 535.34121704 C-539.40510375 519.23757606 -539.18363038 503.31775985 -537.25 487.3125 C-537.17223328 486.65066711 -537.09446655 485.98883423 -537.01434326 485.3069458 C-533.6413417 456.60105137 -528.87306672 428.22710409 -521.25 400.3125 C-521.0123291 399.43094238 -520.7746582 398.54938477 -520.52978516 397.64111328 C-512.80544884 369.25901434 -502.41964708 342.05149645 -490.25 315.3125 C-489.775625 314.26594238 -489.30125 313.21938477 -488.8125 312.14111328 C-482.08413676 297.40131469 -474.44703182 283.28326398 -466.25 269.3125 C-465.71665039 268.40242188 -465.18330078 267.49234375 -464.63378906 266.5546875 C-458.78746447 256.6162937 -452.82977093 246.78688365 -446.25 237.3125 C-445.81220215 236.67779785 -445.3744043 236.0430957 -444.92333984 235.38916016 C-438.0341393 225.41788749 -430.86843949 215.7377073 -423.25 206.3125 C-422.49074219 205.37019531 -421.73148438 204.42789063 -420.94921875 203.45703125 C-418.73237649 200.72830712 -416.49657976 198.01678701 -414.25 195.3125 C-413.83282715 194.80895996 -413.4156543 194.30541992 -412.98583984 193.78662109 C-402.0117227 180.5680754 -390.27670559 168.1523719 -378.1315918 156.00878906 C-376.18053259 154.05552472 -374.23766164 152.09434746 -372.29492188 150.1328125 C-365.97671151 143.78698089 -359.64327161 137.71516332 -352.58886719 132.18383789 C-350.13905038 130.22372872 -347.85137399 128.1447531 -345.5625 126 C-339.49303717 120.47707647 -332.90414923 115.69714347 -326.30273438 110.83886719 C-324.37647605 109.40654475 -322.47378962 107.9490328 -320.578125 106.4765625 C-254.38840954 55.28984921 -173.6820434 22.20049454 -91.58496094 7.90136719 C-88.87528702 7.42290939 -86.17526847 6.91870012 -83.4765625 6.3828125 C-74.69519422 4.68262742 -65.89095893 3.63606047 -57 2.6875 C-55.85829346 2.56415283 -54.71658691 2.44080566 -53.5402832 2.3137207 C-35.75434014 0.51760024 -17.8677885 0.04742044 0 0 Z " fill="#058346" transform="translate(999.25,459.6875)"/>
<path d="M0 0 C7.93867453 4.31479829 15.85184855 8.67399901 23.75 13.0625 C24.33237427 13.38603455 24.91474854 13.70956909 25.51477051 14.04290771 C36.43601759 20.11203779 47.32065259 26.24470009 58.18945312 32.40722656 C62.95718079 35.10915979 67.72878676 37.80422817 72.5 40.5 C78.22751762 43.73659603 83.95461655 46.97392148 89.6796875 50.21484375 C99.64754259 55.85587968 109.62720252 61.4746836 119.625 67.0625 C128.12674853 71.81478287 136.5988161 76.61504834 145.04736328 81.46118164 C151.8403325 85.35179396 158.66558786 89.18273078 165.5 93 C174.04390158 97.77208161 182.55808459 102.59160067 191.046875 107.4609375 C197.84004219 111.35156962 204.66542899 115.18264205 211.5 119 C220.04390158 123.77208161 228.55808459 128.59160067 237.046875 133.4609375 C243.84004219 137.35156962 250.66542899 141.18264205 257.5 145 C266.03215648 149.76552155 274.53516137 154.57752309 283.01171875 159.44116211 C291.22103943 164.14376397 299.47708884 168.76190156 307.74023438 173.36914062 C308.74376953 173.92923828 309.74730469 174.48933594 310.78125 175.06640625 C311.66876953 175.56084229 312.55628906 176.05527832 313.47070312 176.56469727 C316 178 316 178 318.57617188 179.74584961 C320.8393594 181.20650728 320.8393594 181.20650728 322.94911081 180.75786597 C325.30296524 179.88804513 326.47115076 178.90077707 328.23805523 177.12829494 C328.85848035 176.51322627 329.47890546 175.8981576 330.11813134 175.26445049 C330.79060475 174.58255643 331.46307817 173.90066237 332.15592957 173.19810486 C332.87734691 172.47854522 333.59876426 171.75898558 334.34204274 171.0176211 C336.7667121 168.59555932 339.18047849 166.16291309 341.59448242 163.73022461 C343.32676654 161.99545823 345.05971827 160.26135828 346.79328918 158.52787781 C350.52889619 154.78956151 354.25988354 151.04672461 357.98683739 147.29978752 C363.37598735 141.88184526 368.77386598 136.4726684 374.17401949 131.06569607 C382.93573571 122.29253331 391.691096 113.51305665 400.44213867 104.72924805 C408.94219426 96.19740689 417.4439786 87.6672974 425.94897461 79.14038086 C426.47306953 78.61493236 426.99716446 78.08948386 427.53714105 77.54811268 C433.25433767 71.81628641 438.97223244 66.0851573 444.69096088 60.35485935 C445.1929983 59.85180355 445.69503572 59.34874776 446.21228639 58.83044784 C448.21873555 56.81994746 450.22519223 54.8094546 452.2317386 52.79905123 C458.11536649 46.90407858 463.99678451 41.00692108 469.87429509 35.10584892 C473.99219647 30.97155274 478.11239105 26.83954766 482.23341179 22.70836067 C483.92868222 21.0079981 485.62307602 19.30676102 487.31655502 17.60461426 C489.61712449 15.29245413 491.92067979 12.98331133 494.22502136 10.6749115 C495.24376973 9.64872433 495.24376973 9.64872433 496.28309888 8.6018061 C500.88596404 4 500.88596404 4 502 4 C502 172.3 502 340.6 502 514 C333.7 514 165.4 514 -8 514 C-1.25 506.125 -1.25 506.125 1.59626579 503.28068638 C2.24567347 502.62928765 2.89508116 501.97788892 3.56416786 501.30675083 C4.25873435 500.61509719 4.95330084 499.92344354 5.66891479 499.21083069 C6.42133143 498.45755963 7.17374806 497.70428858 7.94896519 496.92819113 C10.45693677 494.41857964 12.9684524 491.91254603 15.47998047 489.40649414 C17.28401307 487.60274375 19.08782522 485.79877285 20.89143372 483.99459839 C24.76788276 480.11792203 28.64585323 476.2427779 32.52523422 472.36903572 C38.13407758 466.76833968 43.74013835 461.16486512 49.3455366 455.56072133 C58.44129181 446.46715157 67.53927519 437.37581451 76.63867188 428.28588867 C85.47480835 419.45893944 94.3098878 410.6309344 103.14355469 401.80151367 C103.96112046 400.98434198 103.96112046 400.98434198 104.79520272 400.15066177 C107.52968118 397.41748841 110.26413894 394.68429434 112.99858642 391.95108998 C135.66251705 369.29751616 158.33006876 346.64756894 181 324 C179.70931448 320.00218521 178.3250382 316.54446879 176.1640625 312.9375 C175.60066162 311.98738037 175.03726074 311.03726074 174.45678711 310.05834961 C173.85229736 309.04909424 173.24780762 308.03983887 172.625 307 C167.92297507 299.05011614 163.32515549 291.06533094 158.9375 282.9375 C153.30320549 272.51288428 147.49409539 262.1942392 141.64111328 251.89111328 C138.92037626 247.09805054 136.21068846 242.29875038 133.5 237.5 C130.26346823 231.77244611 127.02607848 226.0453834 123.78515625 220.3203125 C118.14412032 210.35245741 112.5253164 200.37279748 106.9375 190.375 C102.18521713 181.87325147 97.38495166 173.4011839 92.53881836 164.95263672 C88.04039258 157.09843143 83.62454411 149.19896543 79.2109375 141.296875 C75.03073363 133.82038702 70.79804487 126.37583326 66.53466797 118.9465332 C62.68153788 112.2210351 58.89825384 105.45806681 55.125 98.6875 C50.4930947 90.37816197 45.76290419 82.13585903 40.9375 73.9375 C35.67973242 64.996366 30.66809453 55.9469792 25.76245117 46.80859375 C18.41379773 33.14169223 10.76511497 19.63019915 2.58886719 6.43920898 C0 2.21319265 0 2.21319265 0 0 Z " fill="#058346" transform="translate(1498,1486)"/>
</svg>
