<?xml version="1.0" encoding="UTF-8"?>
<svg version="1.1" xmlns="http://www.w3.org/2000/svg" width="2000" height="2000">
<path d="M0 0 C660 0 1320 0 2000 0 C2000 660 2000 1320 2000 2000 C1340 2000 680 2000 0 2000 C0 1340 0 680 0 0 Z " fill="#058346" transform="translate(0,0)"/>
<path d="M0 0 C1.07038513 -0.00261841 2.14077026 -0.00523682 3.24359131 -0.00793457 C19.93327525 -0.0122423 36.49268573 0.6936276 53.125 2.0625 C54.10742676 2.14100189 55.08985352 2.21950378 56.10205078 2.30038452 C70.88219632 3.5098359 85.41308716 5.66180861 100 8.3125 C101.12553284 8.51613159 101.12553284 8.51613159 102.27380371 8.72387695 C150.54401501 17.53149509 196.74873411 33.1382196 241 54.3125 C241.90347168 54.73966309 242.80694336 55.16682617 243.73779297 55.60693359 C264.93079405 65.66794715 284.93077514 77.7623131 304.4375 90.75 C305.51990967 91.4706665 306.60231934 92.19133301 307.7175293 92.93383789 C314.98968505 97.83354924 322.03000314 102.99334274 329 108.3125 C329.65427979 108.80806396 330.30855957 109.30362793 330.98266602 109.81420898 C341.11481942 117.497095 351.02814144 125.39251722 360.41796875 133.9765625 C362.5166342 135.87520386 364.63654068 137.73874839 366.7734375 139.59375 C371.08823415 143.36106046 375.27406257 147.25425945 379.4375 151.1875 C380.18177246 151.89003906 380.92604492 152.59257813 381.69287109 153.31640625 C388.76104083 160.00589643 395.72454806 166.69947274 402.0625 174.09375 C403.98572656 176.29615461 405.96032011 178.44503658 407.94946289 180.58789062 C413.55756363 186.63491961 418.84534302 192.87130879 424 199.3125 C424.92240375 200.44333957 425.84562196 201.57351515 426.76953125 202.703125 C452.21643274 233.95185242 472.94907212 268.35518509 491 304.3125 C491.46003418 305.22322266 491.92006836 306.13394531 492.39404297 307.07226562 C508.08546933 338.32440597 520.6789793 372.32099035 529 406.3125 C529.23525391 407.2710791 529.47050781 408.2296582 529.71289062 409.21728516 C535.70979492 433.91466253 539.70723817 458.50276674 542.58276367 483.72412109 C542.87082167 486.20152102 543.1841925 488.6760627 543.51806641 491.14770508 C544.10246722 495.81365262 544.3405251 500.47966254 544.54296875 505.17578125 C544.58439499 506.12640945 544.62582123 507.07703766 544.66850281 508.05647278 C546.59710499 555.66716613 544.66368168 602.59882451 535 649.3125 C534.85951233 649.99332642 534.71902466 650.67415283 534.57427979 651.37561035 C531.14444636 667.90774727 527.30583063 684.27167772 522 700.3125 C521.5968457 701.54887207 521.19369141 702.78524414 520.77832031 704.05908203 C504.04196895 755.25645213 481.58099333 804.46527188 450.27929688 848.51123047 C449.00546224 850.30480908 447.74405322 852.10661539 446.484375 853.91015625 C440.61108603 862.27622519 434.40180952 870.34531982 428 878.3125 C427.24976563 879.24707031 426.49953125 880.18164062 425.7265625 881.14453125 C423.50423254 883.88433516 421.25917141 886.60299542 419 889.3125 C418.57170898 889.8271582 418.14341797 890.34181641 417.70214844 890.87207031 C406.30261795 904.5205432 394.04281837 917.34004584 381.5 929.9375 C380.77087402 930.67129883 380.04174805 931.40509766 379.29052734 932.16113281 C375.24730688 936.19232814 371.10638912 940.04824447 366.78173828 943.77587891 C364.54508666 945.70483003 362.36731984 947.69474 360.1875 949.6875 C354.93567506 954.41493697 349.52595623 958.91060258 344 963.3125 C343.360625 963.82441895 342.72125 964.33633789 342.0625 964.86376953 C331.4263567 973.35432889 320.51384005 981.28341948 309.19726562 988.84130859 C307.180773 990.19146243 305.17461518 991.55534679 303.171875 992.92578125 C256.36581147 1024.80981484 203.60944544 1048.43511595 149 1063.3125 C147.45135731 1063.76403114 145.90321932 1064.21729527 144.35546875 1064.671875 C122.69823364 1070.93191355 100.39116388 1074.99794465 78.06396484 1078.02880859 C76.15116314 1078.29172267 74.24141084 1078.5765693 72.33203125 1078.86328125 C50.76148752 1081.99950903 29.14191244 1082.65432165 7.375 1082.5625 C6.10850616 1082.56006287 4.84201233 1082.55762573 3.53713989 1082.55511475 C-15.37680843 1082.51246774 -34.16691741 1082.17073177 -53 1080.3125 C-53.88719727 1080.22709961 -54.77439453 1080.14169922 -55.68847656 1080.05371094 C-63.3336096 1079.29426064 -70.9336676 1078.26613208 -78.5 1076.9296875 C-81.3100467 1076.43416587 -84.12110795 1075.96489562 -86.9375 1075.5078125 C-159.27717208 1063.59543863 -228.46253181 1035.98057395 -290 996.3125 C-290.63325195 995.90692871 -291.26650391 995.50135742 -291.91894531 995.08349609 C-306.53742004 985.69471682 -320.47380344 975.20284406 -334 964.3125 C-334.97582031 963.53132813 -335.95164062 962.75015625 -336.95703125 961.9453125 C-342.34521158 957.58955273 -347.55721428 953.08279154 -352.6796875 948.41796875 C-354.70154184 946.58332315 -356.74678522 944.78481214 -358.8125 943 C-370.8129222 932.52075808 -382.76542277 921.64345421 -393.1015625 909.4921875 C-395.11981245 907.17493756 -397.20321294 904.93054482 -399.30102539 902.68554688 C-405.14098149 896.43162149 -410.68020048 890.01967384 -416 883.3125 C-416.84750649 882.25769216 -417.69516912 881.20300975 -418.54296875 880.1484375 C-434.89424235 859.69441556 -449.94597342 838.01911623 -463 815.3125 C-463.49935059 814.45301758 -463.99870117 813.59353516 -464.51318359 812.70800781 C-482.41193859 781.81166177 -496.83738235 749.76394093 -508.4375 716 C-508.68920959 715.26787292 -508.94091919 714.53574585 -509.20025635 713.78143311 C-515.92856265 694.12476737 -521.06980121 674.13347552 -525.4519043 653.8347168 C-525.85995902 651.95693804 -526.27690576 650.08108723 -526.69848633 648.20629883 C-528.6771648 639.26708189 -530.21522278 630.30052516 -531.5625 621.25 C-531.67049927 620.53083405 -531.77849854 619.81166809 -531.88977051 619.07070923 C-535.89133956 592.31475 -537.21733495 565.72434054 -537.1875 538.6875 C-537.18656342 537.58322662 -537.18562683 536.47895325 -537.18466187 535.34121704 C-537.15510375 519.23757606 -536.93363038 503.31775985 -535 487.3125 C-534.92223328 486.65066711 -534.84446655 485.98883423 -534.76434326 485.3069458 C-531.3913417 456.60105137 -526.62306672 428.22710409 -519 400.3125 C-518.7623291 399.43094238 -518.5246582 398.54938477 -518.27978516 397.64111328 C-510.55544884 369.25901434 -500.16964708 342.05149645 -488 315.3125 C-487.525625 314.26594238 -487.05125 313.21938477 -486.5625 312.14111328 C-479.83413676 297.40131469 -472.19703182 283.28326398 -464 269.3125 C-463.46665039 268.40242188 -462.93330078 267.49234375 -462.38378906 266.5546875 C-456.53746447 256.6162937 -450.57977093 246.78688365 -444 237.3125 C-443.56220215 236.67779785 -443.1244043 236.0430957 -442.67333984 235.38916016 C-435.7841393 225.41788749 -428.61843949 215.7377073 -421 206.3125 C-420.24074219 205.37019531 -419.48148438 204.42789063 -418.69921875 203.45703125 C-416.48237649 200.72830712 -414.24657976 198.01678701 -412 195.3125 C-411.58282715 194.80895996 -411.1656543 194.30541992 -410.73583984 193.78662109 C-399.7617227 180.5680754 -388.02670559 168.1523719 -375.8815918 156.00878906 C-373.93053259 154.05552472 -371.98766164 152.09434746 -370.04492188 150.1328125 C-363.72671151 143.78698089 -357.39327161 137.71516332 -350.33886719 132.18383789 C-347.88905038 130.22372872 -345.60137399 128.1447531 -343.3125 126 C-337.24303717 120.47707647 -330.65414923 115.69714347 -324.05273438 110.83886719 C-322.12647605 109.40654475 -320.22378962 107.9490328 -318.328125 106.4765625 C-252.13840954 55.28984921 -171.4320434 22.20049454 -89.33496094 7.90136719 C-86.62528702 7.42290939 -83.92526847 6.91870012 -81.2265625 6.3828125 C-54.54942866 1.2177786 -27.11364601 0.06414693 0 0 Z " fill="#FEFEFE" transform="translate(997,459.6875)"/>
<path d="M0 0 C7.93867453 4.31479829 15.85184855 8.67399901 23.75 13.0625 C24.33237427 13.38603455 24.91474854 13.70956909 25.51477051 14.04290771 C36.43601759 20.11203779 47.32065259 26.24470009 58.18945312 32.40722656 C62.95718079 35.10915979 67.72878676 37.80422817 72.5 40.5 C78.22751762 43.73659603 83.95461655 46.97392148 89.6796875 50.21484375 C99.64754259 55.85587968 109.62720252 61.4746836 119.625 67.0625 C128.12674853 71.81478287 136.5988161 76.61504834 145.04736328 81.46118164 C151.8403325 85.35179396 158.66558786 89.18273078 165.5 93 C174.04390158 97.77208161 182.55808459 102.59160067 191.046875 107.4609375 C197.84004219 111.35156962 204.66542899 115.18264205 211.5 119 C220.04390158 123.77208161 228.55808459 128.59160067 237.046875 133.4609375 C243.84004219 137.35156962 250.66542899 141.18264205 257.5 145 C266.03215648 149.76552155 274.53516137 154.57752309 283.01171875 159.44116211 C291.22103943 164.14376397 299.47708884 168.76190156 307.74023438 173.36914062 C308.74376953 173.92923828 309.74730469 174.48933594 310.78125 175.06640625 C311.66876953 175.56084229 312.55628906 176.05527832 313.47070312 176.56469727 C316 178 316 178 318.57617188 179.74584961 C320.8393594 181.20650728 320.8393594 181.20650728 322.94911081 180.75786597 C325.30296524 179.88804513 326.47115076 178.90077707 328.23805523 177.12829494 C328.85848035 176.51322627 329.47890546 175.8981576 330.11813134 175.26445049 C330.79060475 174.58255643 331.46307817 173.90066237 332.15592957 173.19810486 C332.87734691 172.47854522 333.59876426 171.75898558 334.34204274 171.0176211 C336.7667121 168.59555932 339.18047849 166.16291309 341.59448242 163.73022461 C343.32676654 161.99545823 345.05971827 160.26135828 346.79328918 158.52787781 C350.52889619 154.78956151 354.25988354 151.04672461 357.98683739 147.29978752 C363.37598735 141.88184526 368.77386598 136.4726684 374.17401949 131.06569607 C382.93573571 122.29253331 391.691096 113.51305665 400.44213867 104.72924805 C408.94219426 96.19740689 417.4439786 87.6672974 425.94897461 79.14038086 C426.47306953 78.61493236 426.99716446 78.08948386 427.53714105 77.54811268 C433.25433767 71.81628641 438.97223244 66.0851573 444.69096088 60.35485935 C445.1929983 59.85180355 445.69503572 59.34874776 446.21228639 58.83044784 C448.21873555 56.81994746 450.22519223 54.8094546 452.2317386 52.79905123 C458.11536649 46.90407858 463.99678451 41.00692108 469.87429509 35.10584892 C473.99219647 30.97155274 478.11239105 26.83954766 482.23341179 22.70836067 C483.92868222 21.0079981 485.62307602 19.30676102 487.31655502 17.60461426 C489.61712449 15.29245413 491.92067979 12.98331133 494.22502136 10.6749115 C495.24376973 9.64872433 495.24376973 9.64872433 496.28309888 8.6018061 C500.88596404 4 500.88596404 4 502 4 C502 172.3 502 340.6 502 514 C333.7 514 165.4 514 -8 514 C-1.25 506.125 -1.25 506.125 1.59626579 503.28068638 C2.24567347 502.62928765 2.89508116 501.97788892 3.56416786 501.30675083 C4.25873435 500.61509719 4.95330084 499.92344354 5.66891479 499.21083069 C6.42133143 498.45755963 7.17374806 497.70428858 7.94896519 496.92819113 C10.45693677 494.41857964 12.9684524 491.91254603 15.47998047 489.40649414 C17.28401307 487.60274375 19.08782522 485.79877285 20.89143372 483.99459839 C24.76788276 480.11792203 28.64585323 476.2427779 32.52523422 472.36903572 C38.13407758 466.76833968 43.74013835 461.16486512 49.3455366 455.56072133 C58.44129181 446.46715157 67.53927519 437.37581451 76.63867188 428.28588867 C85.47480835 419.45893944 94.3098878 410.6309344 103.14355469 401.80151367 C103.96112046 400.98434198 103.96112046 400.98434198 104.79520272 400.15066177 C107.52968118 397.41748841 110.26413894 394.68429434 112.99858642 391.95108998 C135.66251705 369.29751616 158.33006876 346.64756894 181 324 C179.70931448 320.00218521 178.3250382 316.54446879 176.1640625 312.9375 C175.60066162 311.98738037 175.03726074 311.03726074 174.45678711 310.05834961 C173.85229736 309.04909424 173.24780762 308.03983887 172.625 307 C167.92297507 299.05011614 163.32515549 291.06533094 158.9375 282.9375 C153.30320549 272.51288428 147.49409539 262.1942392 141.64111328 251.89111328 C138.92037626 247.09805054 136.21068846 242.29875038 133.5 237.5 C130.26346823 231.77244611 127.02607848 226.0453834 123.78515625 220.3203125 C118.14412032 210.35245741 112.5253164 200.37279748 106.9375 190.375 C102.18521713 181.87325147 97.38495166 173.4011839 92.53881836 164.95263672 C88.04039258 157.09843143 83.62454411 149.19896543 79.2109375 141.296875 C75.03073363 133.82038702 70.79804487 126.37583326 66.53466797 118.9465332 C62.68153788 112.2210351 58.89825384 105.45806681 55.125 98.6875 C50.4930947 90.37816197 45.76290419 82.13585903 40.9375 73.9375 C35.67973242 64.996366 30.66809453 55.9469792 25.76245117 46.80859375 C18.41379773 33.14169223 10.76511497 19.63019915 2.58886719 6.43920898 C0 2.21319265 0 2.21319265 0 0 Z " fill="#FEFEFE" transform="translate(1498,1486)"/>
</svg>
