<?xml version="1.0" encoding="UTF-8"?>
<!DOCTYPE svg PUBLIC "-//W3C//DTD SVG 1.1//EN" "http://www.w3.org/Graphics/SVG/1.1/DTD/svg11.dtd">
<svg xmlns="http://www.w3.org/2000/svg" version="1.1" width="3258px" height="3258px" style="shape-rendering:geometricPrecision; text-rendering:geometricPrecision; image-rendering:optimizeQuality; fill-rule:evenodd; clip-rule:evenodd" xmlns:xlink="http://www.w3.org/1999/xlink">
<g><path style="opacity:1" fill="#313131" d="M 1628.5,-0.5 C 1628.83,-0.5 1629.17,-0.5 1629.5,-0.5C 1962.17,552.167 2294.83,1104.83 2627.5,1657.5C 2294.75,1506.98 1961.75,1355.98 1628.5,1204.5C 1628.5,1204.17 1628.5,1203.83 1628.5,1203.5C 1628.5,802.167 1628.5,400.833 1628.5,-0.5 Z"/></g>
<g><path style="opacity:1" fill="#888888" d="M 1627.5,-0.5 C 1627.83,-0.5 1628.17,-0.5 1628.5,-0.5C 1628.5,400.833 1628.5,802.167 1628.5,1203.5C 1627.83,1203.5 1627.5,1203.83 1627.5,1204.5C 1294.61,1355.78 961.608,1506.78 628.5,1657.5C 961.5,1104.83 1294.5,552.167 1627.5,-0.5 Z"/></g>
<g><path style="opacity:1" fill="#383838" d="M 1627.5,1204.5 C 1627.83,1552.67 1627.5,1900.67 1626.5,2248.5C 1294.89,2052.69 963.222,1856.86 631.5,1661C 629.937,1660.24 628.937,1659.07 628.5,1657.5C 961.608,1506.78 1294.61,1355.78 1627.5,1204.5 Z"/></g>
<g><path style="opacity:1" fill="#3e3e3e" d="M 1628.5,1203.5 C 1628.5,1203.83 1628.5,1204.17 1628.5,1204.5C 1628.5,1552.83 1628.5,1901.17 1628.5,2249.5C 1627.51,2249.67 1626.84,2249.34 1626.5,2248.5C 1627.5,1900.67 1627.83,1552.67 1627.5,1204.5C 1627.5,1203.83 1627.83,1203.5 1628.5,1203.5 Z"/></g>
<g><path style="opacity:1" fill="#121212" d="M 1628.5,1204.5 C 1961.75,1355.98 2294.75,1506.98 2627.5,1657.5C 2628.77,1658.08 2628.77,1658.74 2627.5,1659.5C 2294.64,1856.43 1961.64,2053.1 1628.5,2249.5C 1628.5,1901.17 1628.5,1552.83 1628.5,1204.5 Z"/></g>
<g><path style="opacity:1" fill="#888888" d="M 1628.5,2437.5 C 1628.5,2710.5 1628.5,2983.5 1628.5,3256.5C 1628.5,3256.83 1628.5,3257.17 1628.5,3257.5C 1628.17,3257.5 1627.83,3257.5 1627.5,3257.5C 1294.76,2787.69 961.755,2318.02 628.5,1848.5C 628.667,1848.17 628.833,1847.83 629,1847.5C 962.14,2044.32 1295.31,2240.98 1628.5,2437.5 Z"/></g>
<g><path style="opacity:1" fill="#373737" d="M 1628.5,3256.5 C 1628.5,2983.5 1628.5,2710.5 1628.5,2437.5C 1961.72,2240.97 2294.89,2044.3 2628,1847.5C 2628.17,1847.83 2628.33,1848.17 2628.5,1848.5C 2295.5,2318.15 1962.16,2787.49 1628.5,3256.5 Z"/></g>
</svg>
