<?xml version="1.0" encoding="UTF-8"?>
<!DOCTYPE svg PUBLIC "-//W3C//DTD SVG 1.1//EN" "http://www.w3.org/Graphics/SVG/1.1/DTD/svg11.dtd">
<svg xmlns="http://www.w3.org/2000/svg" version="1.1" width="400px" height="400px" style="shape-rendering:geometricPrecision; text-rendering:geometricPrecision; image-rendering:optimizeQuality; fill-rule:evenodd; clip-rule:evenodd" xmlns:xlink="http://www.w3.org/1999/xlink">
<g><path style="opacity:1" fill="#f9cd19" d="M -0.5,-0.5 C 132.833,-0.5 266.167,-0.5 399.5,-0.5C 399.5,132.833 399.5,266.167 399.5,399.5C 266.167,399.5 132.833,399.5 -0.5,399.5C -0.5,266.167 -0.5,132.833 -0.5,-0.5 Z"/></g>
<g><path style="opacity:1" fill="#675312" d="M 293.5,175.5 C 293.75,174.078 294.583,173.078 296,172.5C 296.5,148.169 296.667,123.836 296.5,99.5C 231.833,99.5 167.167,99.5 102.5,99.5C 102.5,110.167 102.5,120.833 102.5,131.5C 102.167,131.5 101.833,131.5 101.5,131.5C 101.5,120.5 101.5,109.5 101.5,98.5C 166.833,98.5 232.167,98.5 297.5,98.5C 297.667,123.502 297.5,148.502 297,173.5C 295.887,174.305 294.721,174.972 293.5,175.5 Z"/></g>
<g><path style="opacity:1" fill="#e0c74c" d="M 101.5,131.5 C 101.833,131.5 102.167,131.5 102.5,131.5C 166.665,132.333 230.999,132.833 295.5,133C 294.264,134.085 292.931,134.918 291.5,135.5C 228.167,134.167 164.833,132.833 101.5,131.5 Z"/></g>
<g><path style="opacity:1" fill="#f2d418" d="M 111.5,135.5 C 164.837,135.167 218.171,135.5 271.5,136.5C 244.833,136.833 218.167,137.167 191.5,137.5C 164.492,137.5 137.825,136.833 111.5,135.5 Z"/></g>
<g><path style="opacity:1" fill="#040201" d="M 293.5,175.5 C 290.802,175.845 288.802,177.178 287.5,179.5C 285.246,180.415 283.246,181.748 281.5,183.5C 278.326,184.01 275.992,185.677 274.5,188.5C 272.973,188.427 271.973,189.094 271.5,190.5C 269.147,191.34 267.147,192.674 265.5,194.5C 262.326,195.01 259.992,196.677 258.5,199.5C 246.341,206.749 234.674,214.749 223.5,223.5C 216.552,227.785 209.885,232.451 203.5,237.5C 196.843,241.513 190.51,245.846 184.5,250.5C 178.314,253.781 172.647,257.781 167.5,262.5C 164.553,263.644 161.887,265.311 159.5,267.5C 206.162,268.5 252.829,268.833 299.5,268.5C 299.5,278.5 299.5,288.5 299.5,298.5C 232.5,298.5 165.5,298.5 98.5,298.5C 98.5,288.5 98.5,278.5 98.5,268.5C 98.5,268.167 98.5,267.833 98.5,267.5C 114.207,256.471 130.207,245.805 146.5,235.5C 148.749,234.92 150.415,233.587 151.5,231.5C 157.463,227.513 163.463,223.513 169.5,219.5C 171.853,218.66 173.853,217.326 175.5,215.5C 176.694,214.728 177.694,213.728 178.5,212.5C 185.5,207.833 192.5,203.167 199.5,198.5C 201.6,198.523 203.433,197.856 205,196.5C 205.945,196.905 206.612,197.572 207,198.5C 207.494,196.866 207.66,195.199 207.5,193.5C 208.833,193.5 209.5,192.833 209.5,191.5C 209.833,191.5 210.167,191.5 210.5,191.5C 212.749,190.92 214.415,189.587 215.5,187.5C 218.114,187.723 219.781,186.556 220.5,184C 227.189,180.284 233.522,176.117 239.5,171.5C 241.853,170.66 243.853,169.326 245.5,167.5C 249.255,164.302 253.255,161.635 257.5,159.5C 259.23,158.974 260.564,157.974 261.5,156.5C 271.425,149.525 281.425,142.525 291.5,135.5C 292.931,134.918 294.264,134.085 295.5,133C 230.999,132.833 166.665,132.333 102.5,131.5C 102.5,120.833 102.5,110.167 102.5,99.5C 167.167,99.5 231.833,99.5 296.5,99.5C 296.667,123.836 296.5,148.169 296,172.5C 294.583,173.078 293.75,174.078 293.5,175.5 Z"/></g>
<g><path style="opacity:1" fill="#816622" d="M 261.5,156.5 C 260.564,157.974 259.23,158.974 257.5,159.5C 258.035,157.554 259.368,156.554 261.5,156.5 Z"/></g>
<g><path style="opacity:1" fill="#806b22" d="M 245.5,167.5 C 243.853,169.326 241.853,170.66 239.5,171.5C 240.733,169.204 242.733,167.87 245.5,167.5 Z"/></g>
<g><path style="opacity:1" fill="#9a872e" d="M 293.5,175.5 C 291.853,177.326 289.853,178.66 287.5,179.5C 288.802,177.178 290.802,175.845 293.5,175.5 Z"/></g>
<g><path style="opacity:1" fill="#eeca25" d="M 239.5,171.5 C 233.522,176.117 227.189,180.284 220.5,184C 219.781,186.556 218.114,187.723 215.5,187.5C 213.251,188.08 211.585,189.413 210.5,191.5C 210.167,191.5 209.833,191.5 209.5,191.5C 208.167,191.5 207.5,192.167 207.5,193.5C 204.489,194.669 201.822,196.336 199.5,198.5C 192.5,203.167 185.5,207.833 178.5,212.5C 178.5,211.5 178.5,210.5 178.5,209.5C 182.76,205.453 187.76,202.286 193.5,200C 193.471,195.891 195.471,194.057 199.5,194.5C 199.5,190.833 199.5,187.167 199.5,183.5C 205.839,183.058 212.006,183.725 218,185.5C 218.253,182.21 219.253,179.21 221,176.5C 221.893,177.081 222.893,177.415 224,177.5C 226.472,176.678 228.972,176.011 231.5,175.5C 231.119,173.058 231.786,172.391 233.5,173.5C 235.323,172.253 237.323,171.586 239.5,171.5 Z"/></g>
<g><path style="opacity:1" fill="#917924" d="M 281.5,183.5 C 279.498,185.482 277.165,187.148 274.5,188.5C 275.992,185.677 278.326,184.01 281.5,183.5 Z"/></g>
<g><path style="opacity:1" fill="#6a521b" d="M 215.5,187.5 C 214.415,189.587 212.749,190.92 210.5,191.5C 211.585,189.413 213.251,188.08 215.5,187.5 Z"/></g>
<g><path style="opacity:1" fill="#70632b" d="M 209.5,191.5 C 209.5,192.833 208.833,193.5 207.5,193.5C 207.5,192.167 208.167,191.5 209.5,191.5 Z"/></g>
<g><path style="opacity:1" fill="#988139" d="M 271.5,190.5 C 270.198,192.822 268.198,194.155 265.5,194.5C 267.147,192.674 269.147,191.34 271.5,190.5 Z"/></g>
<g><path style="opacity:1" fill="#332a13" d="M 207.5,193.5 C 207.66,195.199 207.494,196.866 207,198.5C 206.612,197.572 205.945,196.905 205,196.5C 203.433,197.856 201.6,198.523 199.5,198.5C 201.822,196.336 204.489,194.669 207.5,193.5 Z"/></g>
<g><path style="opacity:1" fill="#867226" d="M 265.5,194.5 C 263.498,196.482 261.165,198.148 258.5,199.5C 259.992,196.677 262.326,195.01 265.5,194.5 Z"/></g>
<g><path style="opacity:1" fill="#6b5918" d="M 175.5,215.5 C 173.853,217.326 171.853,218.66 169.5,219.5C 170.802,217.178 172.802,215.845 175.5,215.5 Z"/></g>
<g><path style="opacity:1" fill="#cdad2e" d="M 223.5,223.5 C 220.579,229.147 215.913,232.647 209.5,234C 208.167,234.667 208.167,235.333 209.5,236C 207.482,236.505 205.482,237.005 203.5,237.5C 209.885,232.451 216.552,227.785 223.5,223.5 Z"/></g>
<g><path style="opacity:1" fill="#4d3a0e" d="M 151.5,231.5 C 150.415,233.587 148.749,234.92 146.5,235.5C 147.585,233.413 149.251,232.08 151.5,231.5 Z"/></g>
<g><path style="opacity:1" fill="#d3b537" d="M 203.5,237.5 C 199.121,244.523 192.788,248.856 184.5,250.5C 190.51,245.846 196.843,241.513 203.5,237.5 Z"/></g>
<g><path style="opacity:1" fill="#f6d143" d="M 164.5,265.5 C 210.33,266.499 256.33,266.832 302.5,266.5C 302.229,277.431 302.562,288.431 303.5,299.5C 302.5,299.5 301.5,299.5 300.5,299.5C 300.5,289.167 300.5,278.833 300.5,268.5C 254.668,267.667 208.668,267.167 162.5,267C 163.044,266.283 163.711,265.783 164.5,265.5 Z"/></g>
<g><path style="opacity:1" fill="#be9c4a" d="M 167.5,262.5 C 166.833,263.833 165.833,264.833 164.5,265.5C 163.711,265.783 163.044,266.283 162.5,267C 208.668,267.167 254.668,267.667 300.5,268.5C 300.167,268.5 299.833,268.5 299.5,268.5C 252.829,268.833 206.162,268.5 159.5,267.5C 161.887,265.311 164.553,263.644 167.5,262.5 Z"/></g>
<g><path style="opacity:1" fill="#d7ba4d" d="M 98.5,267.5 C 98.5,267.833 98.5,268.167 98.5,268.5C 97.5058,278.653 97.1724,288.986 97.5,299.5C 96.8339,294.344 96.5006,289.011 96.5,283.5C 96.5051,277.789 97.1718,272.456 98.5,267.5 Z"/></g>
<g><path style="opacity:1" fill="#1e1601" d="M 98.5,268.5 C 98.5,278.5 98.5,288.5 98.5,298.5C 165.5,298.5 232.5,298.5 299.5,298.5C 299.5,288.5 299.5,278.5 299.5,268.5C 299.833,268.5 300.167,268.5 300.5,268.5C 300.5,278.833 300.5,289.167 300.5,299.5C 232.833,299.5 165.167,299.5 97.5,299.5C 97.1724,288.986 97.5058,278.653 98.5,268.5 Z"/></g>
<g><path style="opacity:1" fill="#d2b131" d="M 97.5,299.5 C 165.167,299.5 232.833,299.5 300.5,299.5C 300.389,300.117 300.056,300.617 299.5,301C 234.167,301.667 168.833,301.667 103.5,301C 101.292,300.809 99.2922,300.309 97.5,299.5 Z"/></g>
</svg>
