<?xml version="1.0" encoding="UTF-8"?>
<svg version="1.1" xmlns="http://www.w3.org/2000/svg" width="2000" height="2000">
<path d="M0 0 C660 0 1320 0 2000 0 C2000 660 2000 1320 2000 2000 C1340 2000 680 2000 0 2000 C0 1340 0 680 0 0 Z " fill="#FEFEFE" transform="translate(0,0)"/>
<path d="M0 0 C0.99087616 0.07841125 1.98175232 0.15682251 3.00265503 0.23760986 C17.86073836 1.44323631 32.46243343 3.58148092 47.125 6.25 C47.87499268 6.38575439 48.62498535 6.52150879 49.39770508 6.66137695 C97.66833551 15.46854948 143.87345442 31.07558577 188.125 52.25 C189.02847168 52.67716309 189.93194336 53.10432617 190.86279297 53.54443359 C212.05579405 63.60544715 232.05577514 75.6998131 251.5625 88.6875 C252.64490967 89.4081665 253.72731934 90.12883301 254.8425293 90.87133789 C262.11485021 95.77116052 269.15799375 100.92653026 276.125 106.25 C277.31452271 107.15504272 277.31452271 107.15504272 278.52807617 108.07836914 C292.42149396 118.69031147 305.70360636 129.831348 318.50195312 141.74023438 C320.29513001 143.40825571 322.09294773 145.07120543 323.890625 146.734375 C341.48453902 163.04446219 341.48453902 163.04446219 349.1875 172.03125 C351.11072656 174.23365461 353.08532011 176.38253658 355.07446289 178.52539062 C360.68256363 184.57241961 365.97034302 190.80880879 371.125 197.25 C372.04740375 198.38083957 372.97062196 199.51101515 373.89453125 200.640625 C399.29418092 231.83362106 420.17629651 266.31309571 438.125 302.25 C438.81070068 303.60955811 438.81070068 303.60955811 439.51025391 304.99658203 C453.12362409 332.10485568 464.12354425 360.99521361 472.125 390.25 C472.51921143 391.68545166 472.51921143 391.68545166 472.92138672 393.14990234 C480.2022223 419.88506414 485.68137008 446.75320285 489.125 474.25 C489.23827637 475.14396484 489.35155273 476.03792969 489.46826172 476.95898438 C496.44390333 533.24899601 493.50153153 591.76049119 482.125 647.25 C481.99158203 647.90961731 481.85816406 648.56923462 481.72070312 649.24884033 C477.72766574 668.97953277 472.45188169 688.14194984 466.125 707.25 C465.77211914 708.33555176 465.41923828 709.42110352 465.05566406 710.53955078 C449.11415484 759.44120744 425.98958958 806.34873173 396.125 848.25 C395.62145996 848.96462402 395.11791992 849.67924805 394.59912109 850.41552734 C387.2991171 860.77385353 379.65838379 870.75595401 371.56494141 880.50585938 C369.53745602 882.96166737 367.55494304 885.45322868 365.5625 887.9375 C361.34678677 893.08917892 356.86139192 897.9607414 352.3125 902.81640625 C349.78996393 905.5109055 347.33280113 908.2585337 344.87890625 911.015625 C340.10714106 916.32852335 335.12276447 921.40046551 330.0625 926.4375 C329.21623047 927.28763672 328.36996094 928.13777344 327.49804688 929.01367188 C322.5352899 933.96877618 317.44484021 938.68338495 312.125 943.25 C310.51731627 944.70445517 308.91260285 946.16220895 307.3125 947.625 C302.06067506 952.35243697 296.65095623 956.84810258 291.125 961.25 C290.485625 961.76191895 289.84625 962.27383789 289.1875 962.80126953 C278.5513567 971.29182889 267.63884005 979.22091948 256.32226562 986.77880859 C254.305773 988.12896243 252.29961518 989.49284679 250.296875 990.86328125 C203.49081147 1022.74731484 150.73444544 1046.37261595 96.125 1061.25 C94.57635731 1061.70153114 93.02821932 1062.15479527 91.48046875 1062.609375 C69.82323364 1068.86941355 47.51616388 1072.93544465 25.18896484 1075.96630859 C23.27616314 1076.22922267 21.36641084 1076.5140693 19.45703125 1076.80078125 C-2.11351248 1079.93700903 -23.73308756 1080.59182165 -45.5 1080.5 C-46.76649384 1080.49756287 -48.03298767 1080.49512573 -49.33786011 1080.49261475 C-68.25180843 1080.44996774 -87.04191741 1080.10823177 -105.875 1078.25 C-106.76219727 1078.16459961 -107.64939453 1078.07919922 -108.56347656 1077.99121094 C-116.2086096 1077.23176064 -123.8086676 1076.20363208 -131.375 1074.8671875 C-134.1850467 1074.37166587 -136.99610795 1073.90239562 -139.8125 1073.4453125 C-212.15217208 1061.53293863 -281.33753181 1033.91807395 -342.875 994.25 C-343.50825195 993.84442871 -344.14150391 993.43885742 -344.79394531 993.02099609 C-359.41242004 983.63221682 -373.34880344 973.14034406 -386.875 962.25 C-387.85082031 961.46882813 -388.82664062 960.68765625 -389.83203125 959.8828125 C-395.22021158 955.52705273 -400.43221428 951.02029154 -405.5546875 946.35546875 C-407.57654184 944.52082315 -409.62178522 942.72231214 -411.6875 940.9375 C-423.33545137 930.76902633 -434.89902544 920.24116082 -444.94140625 908.46484375 C-446.9737464 906.13689048 -449.06842839 903.87884238 -451.17797852 901.62109375 C-457.01791949 895.36667024 -462.53613667 888.94149481 -467.875 882.25 C-468.79591185 881.12030792 -469.71784111 879.99144468 -470.640625 878.86328125 C-510.52812289 829.88699031 -540.83711751 773.58187106 -561.3125 713.9375 C-561.56402832 713.20573547 -561.81555664 712.47397095 -562.07470703 711.72003174 C-565.29751353 702.30488581 -568.24128946 692.84982733 -570.875 683.25 C-571.13579346 682.31164307 -571.39658691 681.37328613 -571.6652832 680.40649414 C-579.33267753 652.56869713 -584.52404714 624.14616144 -587.5625 595.4375 C-587.68189941 594.31891602 -587.80129883 593.20033203 -587.92431641 592.04785156 C-589.76548476 573.60419405 -590.08293932 555.14739027 -590.0625 536.625 C-590.06156342 535.52072662 -590.06062683 534.41645325 -590.05966187 533.27871704 C-590.03009692 517.17135592 -589.78741845 501.26034487 -587.875 485.25 C-587.72235148 483.9064658 -587.57020051 482.562875 -587.41845703 481.21923828 C-577.40364869 393.685843 -547.34172824 307.81401461 -496.875 235.25 C-496.44010254 234.61964844 -496.00520508 233.98929688 -495.55712891 233.33984375 C-488.66500106 223.36408888 -481.49680757 213.67937414 -473.875 204.25 C-473.11574219 203.30769531 -472.35648438 202.36539063 -471.57421875 201.39453125 C-469.35737649 198.66580712 -467.12157976 195.95428701 -464.875 193.25 C-464.45782715 192.74645996 -464.0406543 192.24291992 -463.61083984 191.72412109 C-452.6367227 178.5055754 -440.90170559 166.0898719 -428.7565918 153.94628906 C-426.80553259 151.99302472 -424.86266164 150.03184746 -422.91992188 148.0703125 C-416.60171151 141.72448089 -410.26827161 135.65266332 -403.21386719 130.12133789 C-400.76405038 128.16122872 -398.47637399 126.0822531 -396.1875 123.9375 C-390.11803717 118.41457647 -383.52914923 113.63464347 -376.92773438 108.77636719 C-375.00147605 107.34404475 -373.09878962 105.8865328 -371.203125 104.4140625 C-300.51400806 49.74781206 -214.625232 17.00155178 -126.875 3.25 C-125.98280762 3.10965332 -125.09061523 2.96930664 -124.17138672 2.82470703 C-83.2441189 -3.44396524 -41.18091061 -3.33870083 0 0 Z " fill="#000000" transform="translate(1049.875,461.75)"/>
<path d="M0 0 C7.93867453 4.31479829 15.85184855 8.67399901 23.75 13.0625 C24.33237427 13.38603455 24.91474854 13.70956909 25.51477051 14.04290771 C36.43601759 20.11203779 47.32065259 26.24470009 58.18945312 32.40722656 C62.95718079 35.10915979 67.72878676 37.80422817 72.5 40.5 C78.22751762 43.73659603 83.95461655 46.97392148 89.6796875 50.21484375 C99.64754259 55.85587968 109.62720252 61.4746836 119.625 67.0625 C128.12674853 71.81478287 136.5988161 76.61504834 145.04736328 81.46118164 C151.8403325 85.35179396 158.66558786 89.18273078 165.5 93 C174.04390158 97.77208161 182.55808459 102.59160067 191.046875 107.4609375 C197.84004219 111.35156962 204.66542899 115.18264205 211.5 119 C220.04390158 123.77208161 228.55808459 128.59160067 237.046875 133.4609375 C243.84004219 137.35156962 250.66542899 141.18264205 257.5 145 C266.03215648 149.76552155 274.53516137 154.57752309 283.01171875 159.44116211 C291.22103943 164.14376397 299.47708884 168.76190156 307.74023438 173.36914062 C308.74376953 173.92923828 309.74730469 174.48933594 310.78125 175.06640625 C311.66876953 175.56084229 312.55628906 176.05527832 313.47070312 176.56469727 C316 178 316 178 318.57617188 179.74584961 C320.8393594 181.20650728 320.8393594 181.20650728 322.94911081 180.75786597 C325.30296524 179.88804513 326.47115076 178.90077707 328.23805523 177.12829494 C328.85848035 176.51322627 329.47890546 175.8981576 330.11813134 175.26445049 C330.79060475 174.58255643 331.46307817 173.90066237 332.15592957 173.19810486 C332.87734691 172.47854522 333.59876426 171.75898558 334.34204274 171.0176211 C336.7667121 168.59555932 339.18047849 166.16291309 341.59448242 163.73022461 C343.32676654 161.99545823 345.05971827 160.26135828 346.79328918 158.52787781 C350.52889619 154.78956151 354.25988354 151.04672461 357.98683739 147.29978752 C363.37598735 141.88184526 368.77386598 136.4726684 374.17401949 131.06569607 C382.93573571 122.29253331 391.691096 113.51305665 400.44213867 104.72924805 C408.94219426 96.19740689 417.4439786 87.6672974 425.94897461 79.14038086 C426.47306953 78.61493236 426.99716446 78.08948386 427.53714105 77.54811268 C433.25433767 71.81628641 438.97223244 66.0851573 444.69096088 60.35485935 C445.1929983 59.85180355 445.69503572 59.34874776 446.21228639 58.83044784 C448.21873555 56.81994746 450.22519223 54.8094546 452.2317386 52.79905123 C458.11536649 46.90407858 463.99678451 41.00692108 469.87429509 35.10584892 C473.99219647 30.97155274 478.11239105 26.83954766 482.23341179 22.70836067 C483.92868222 21.0079981 485.62307602 19.30676102 487.31655502 17.60461426 C489.61712449 15.29245413 491.92067979 12.98331133 494.22502136 10.6749115 C495.24376973 9.64872433 495.24376973 9.64872433 496.28309888 8.6018061 C500.88596404 4 500.88596404 4 502 4 C502 172.3 502 340.6 502 514 C333.7 514 165.4 514 -8 514 C-1.25 506.125 -1.25 506.125 1.59626579 503.28068638 C2.24567347 502.62928765 2.89508116 501.97788892 3.56416786 501.30675083 C4.25873435 500.61509719 4.95330084 499.92344354 5.66891479 499.21083069 C6.42133143 498.45755963 7.17374806 497.70428858 7.94896519 496.92819113 C10.45693677 494.41857964 12.9684524 491.91254603 15.47998047 489.40649414 C17.28401307 487.60274375 19.08782522 485.79877285 20.89143372 483.99459839 C24.76788276 480.11792203 28.64585323 476.2427779 32.52523422 472.36903572 C38.13407758 466.76833968 43.74013835 461.16486512 49.3455366 455.56072133 C58.44129181 446.46715157 67.53927519 437.37581451 76.63867188 428.28588867 C85.47480835 419.45893944 94.3098878 410.6309344 103.14355469 401.80151367 C103.96112046 400.98434198 103.96112046 400.98434198 104.79520272 400.15066177 C107.52968118 397.41748841 110.26413894 394.68429434 112.99858642 391.95108998 C135.66251705 369.29751616 158.33006876 346.64756894 181 324 C179.70931448 320.00218521 178.3250382 316.54446879 176.1640625 312.9375 C175.60066162 311.98738037 175.03726074 311.03726074 174.45678711 310.05834961 C173.85229736 309.04909424 173.24780762 308.03983887 172.625 307 C167.92297507 299.05011614 163.32515549 291.06533094 158.9375 282.9375 C153.30320549 272.51288428 147.49409539 262.1942392 141.64111328 251.89111328 C138.92037626 247.09805054 136.21068846 242.29875038 133.5 237.5 C130.26346823 231.77244611 127.02607848 226.0453834 123.78515625 220.3203125 C118.14412032 210.35245741 112.5253164 200.37279748 106.9375 190.375 C102.18521713 181.87325147 97.38495166 173.4011839 92.53881836 164.95263672 C88.04039258 157.09843143 83.62454411 149.19896543 79.2109375 141.296875 C75.03073363 133.82038702 70.79804487 126.37583326 66.53466797 118.9465332 C62.68153788 112.2210351 58.89825384 105.45806681 55.125 98.6875 C50.4930947 90.37816197 45.76290419 82.13585903 40.9375 73.9375 C35.67973242 64.996366 30.66809453 55.9469792 25.76245117 46.80859375 C18.41379773 33.14169223 10.76511497 19.63019915 2.58886719 6.43920898 C0 2.21319265 0 2.21319265 0 0 Z " fill="#000000" transform="translate(1498,1486)"/>
</svg>
